<svg xmlns="http://www.w3.org/2000/svg" width="100" height="99.892" viewBox="0 0 100 99.892">
  <path id="Path_1591" data-name="Path 1591" d="M93.559.5H6.441A6.449,6.449,0,0,0,0,6.941V77.756A6.449,6.449,0,0,0,6.441,84.2h5.508a1.463,1.463,0,1,0,0-2.927H6.441a3.518,3.518,0,0,1-3.514-3.514V72.2h53.32v2.522h-1.16A2.881,2.881,0,0,0,52.208,77.6V81.27H20.847a1.463,1.463,0,1,0,0,2.927H34.919v5.249H30.5a5.352,5.352,0,0,0-5.346,5.346v3.162a2.442,2.442,0,0,0,2.439,2.439H72.3a2.442,2.442,0,0,0,2.439-2.439V94.791a5.352,5.352,0,0,0-5.346-5.346H64.97V87.6H92.026A2.881,2.881,0,0,0,94.9,84.717v-.689a6.45,6.45,0,0,0,4.985-6.272L100,6.941A6.447,6.447,0,0,0,93.559.5ZM55.135,68.719V61.7H91.977v7.015Zm4.038-9.943V55.7H87.938v3.079ZM87.938,71.646v3.08H59.174v-3.08ZM37.845,84.2H52.208v.521A2.881,2.881,0,0,0,55.086,87.6h6.957v1.85h-24.2Zm31.544,8.176a2.421,2.421,0,0,1,2.419,2.419v2.674H28.08V94.791A2.422,2.422,0,0,1,30.5,92.373Zm22.588-7.7H55.135V77.653H91.977Zm4.985-6.912A3.515,3.515,0,0,1,94.9,80.949V77.6a2.882,2.882,0,0,0-2.879-2.878h-1.16V72.2h6.1Zm0-8.479H94.856c.03-.166.048-7.622.048-7.622a2.882,2.882,0,0,0-2.879-2.879h-1.16V55.7h1.16A2.882,2.882,0,0,0,94.9,52.819V45.706a2.882,2.882,0,0,0-2.879-2.879H83.759a1.464,1.464,0,0,0,0,2.927h8.218V52.77H55.135V45.755H74.653a1.464,1.464,0,0,0,0-2.927H55.086a2.882,2.882,0,0,0-2.879,2.879v7.113A2.882,2.882,0,0,0,55.086,55.7h1.16v3.079h-1.16a2.882,2.882,0,0,0-2.879,2.879s.018,7.456.048,7.622H2.927V20.408H96.962Zm0-51.8H3.034V6.941A3.518,3.518,0,0,1,6.549,3.427h86.9a3.518,3.518,0,0,1,3.514,3.514Zm0,0" transform="translate(0 -0.5)" fill="#fff"/>
</svg>
