<svg xmlns="http://www.w3.org/2000/svg" width="100" height="105.978" viewBox="0 0 100 105.978">
  <path id="Path_1604" data-name="Path 1604" d="M100,24.8a24.716,24.716,0,0,0-3.754-13.119,1.552,1.552,0,1,0-2.633,1.646A21.748,21.748,0,1,1,88.987,8.06a1.552,1.552,0,1,0,1.974-2.4A24.853,24.853,0,0,0,53.6,12.5H15.589A15.6,15.6,0,0,0,0,28.075V37.5a1.552,1.552,0,1,0,3.1,0V28.075A12.489,12.489,0,0,1,15.589,15.61H52.1A24.823,24.823,0,0,0,87.838,46.126V90.408a12.489,12.489,0,0,1-12.485,12.465H68.466a1.552,1.552,0,1,0,0,3.1h6.887a15.6,15.6,0,0,0,15.59-15.569V43.944A24.75,24.75,0,0,0,100,24.8Zm0,0" transform="translate(0 0)" fill="#fff"/>
</svg>
